<svg width="24px" height="24px" viewBox="0 0 24 24" fill="none" xmlns="http://www.w3.org/2000/svg">
<path d="M11.82 11.83C11.1258 11.83 10.4472 11.6241 9.86995 11.2385C9.29273 10.8528 8.84285 10.3046 8.57718 9.66322C8.31152 9.02185 8.24201 8.31611 8.37744 7.63523C8.51288 6.95436 8.84717 6.32894 9.33806 5.83805C9.82894 5.34717 10.4544 5.01288 11.1352 4.87744C11.8161 4.74201 12.5218 4.81152 13.1632 5.07718C13.8046 5.34285 14.3528 5.79273 14.7385 6.36995C15.1241 6.94716 15.33 7.62579 15.33 8.32C15.3274 9.2501 14.9567 10.1413 14.299 10.799C13.6413 11.4567 12.7501 11.8274 11.82 11.83ZM11.82 6.31C11.4244 6.31 11.0378 6.4273 10.7089 6.64706C10.38 6.86682 10.1236 7.17918 9.97224 7.54463C9.82087 7.91008 9.78126 8.31222 9.85843 8.70018C9.9356 9.08814 10.1261 9.44451 10.4058 9.72421C10.6855 10.0039 11.0419 10.1944 11.4298 10.2716C11.8178 10.3487 12.2199 10.3091 12.5854 10.1578C12.9508 10.0064 13.2632 9.75004 13.4829 9.42114C13.7027 9.09224 13.82 8.70556 13.82 8.31C13.82 7.77957 13.6093 7.27086 13.2342 6.89579C12.8591 6.52071 12.3504 6.31 11.82 6.31Z" fill="black"/>
<path d="M17.46 10.19H17.35C17.2524 10.1766 17.1584 10.1438 17.0736 10.0936C16.9888 10.0433 16.9149 9.97669 16.8562 9.89751C16.7975 9.81833 16.7552 9.72823 16.7319 9.63249C16.7085 9.53675 16.7044 9.43731 16.72 9.33999V9.18999V8.94999C16.7288 8.8602 16.7288 8.76977 16.72 8.67999C16.72 8.40999 16.72 8.26999 16.72 8.26999C16.6574 7.02836 16.1184 5.8587 15.2153 5.00438C14.3121 4.15006 13.1143 3.6769 11.8711 3.68334C10.6279 3.68978 9.43509 4.17533 8.54083 5.03896C7.64657 5.90259 7.11975 7.07778 7.07 8.31999C7.07 8.31999 7.07 8.44999 7.07 8.63999C7.0622 8.72982 7.0622 8.82016 7.07 8.90999C7.07 9.01999 7.07 9.09999 7.07 9.18999V9.33999C7.08907 9.53087 7.03428 9.72179 6.91689 9.87351C6.7995 10.0252 6.62844 10.1262 6.43889 10.1557C6.24933 10.1851 6.0557 10.1408 5.89781 10.0319C5.73991 9.92295 5.62976 9.75765 5.59 9.56999V9.20999C5.57181 9.03379 5.57181 8.85619 5.59 8.67999V8.38999C5.58606 7.56003 5.74563 6.73743 6.0596 5.96915C6.37357 5.20086 6.83579 4.50194 7.41987 3.91229C8.00395 3.32263 8.69845 2.8538 9.46372 2.53255C10.229 2.2113 11.05 2.04393 11.88 2.03999C12.71 2.03605 13.5326 2.19562 14.3008 2.50959C15.0691 2.82356 15.7681 3.28578 16.3577 3.86986C16.9474 4.45394 17.4162 5.14844 17.7374 5.91371C18.0587 6.67898 18.2261 7.50003 18.23 8.32999C18.23 8.40999 18.23 8.51999 18.23 8.70999C18.2293 8.89161 18.2092 9.07264 18.17 9.24999V9.56999C18.1404 9.73894 18.0538 9.89264 17.9246 10.0055C17.7954 10.1183 17.6314 10.1834 17.46 10.19Z" fill="black"/>
<path d="M12 22C11.9015 22.0005 11.8038 21.9812 11.7128 21.9435C11.6218 21.9057 11.5392 21.8501 11.47 21.78C6.1 16.41 5.7 8.67999 5.68 8.34999C5.67451 8.15174 5.74674 7.95919 5.88126 7.81346C6.01578 7.66773 6.20194 7.58035 6.4 7.56999C6.49851 7.56597 6.59685 7.58141 6.68939 7.61544C6.78192 7.64946 6.86684 7.70139 6.93929 7.76826C7.01173 7.83514 7.07028 7.91564 7.11159 8.00516C7.15289 8.09468 7.17614 8.19147 7.18 8.28999C7.18 8.35999 7.58 15.77 12.53 20.72C12.6705 20.8606 12.7493 21.0512 12.7493 21.25C12.7493 21.4487 12.6705 21.6394 12.53 21.78C12.4608 21.8501 12.3782 21.9057 12.2872 21.9435C12.1962 21.9812 12.0985 22.0005 12 22Z" fill="black"/>
<path d="M12 22C11.9015 22.0005 11.8038 21.9812 11.7128 21.9435C11.6218 21.9057 11.5392 21.8501 11.47 21.78C11.3296 21.6394 11.2507 21.4487 11.2507 21.25C11.2507 21.0512 11.3296 20.8606 11.47 20.72C16.47 15.72 16.81 8.35999 16.82 8.28999C16.8239 8.19147 16.8471 8.09468 16.8884 8.00516C16.9297 7.91564 16.9883 7.83514 17.0607 7.76826C17.1332 7.70139 17.2181 7.64946 17.3106 7.61544C17.4032 7.58141 17.5015 7.56597 17.6 7.56999C17.7981 7.58035 17.9842 7.66773 18.1187 7.81346C18.2533 7.95919 18.3255 8.15174 18.32 8.34999C18.32 8.67999 17.9 16.41 12.53 21.78C12.4608 21.8501 12.3782 21.9057 12.2872 21.9435C12.1962 21.9812 12.0985 22.0005 12 22Z" fill="black"/>
</svg>
